<svg width="40" height="40" viewBox="0 0 40 40" fill="none" xmlns="http://www.w3.org/2000/svg">
<path d="M26.7947 17.1134L25.8827 28.5933C25.8299 29.2061 25.3263 29.6674 24.7136 29.6674H15.4451C14.8288 29.6674 14.3288 29.2062 14.276 28.5969L13.364 17.1134C13.3323 16.7261 12.9977 16.4374 12.6068 16.4656C12.2195 16.4972 11.9307 16.8354 11.9589 17.2227L12.8709 28.7097C12.9836 30.0584 14.0894 31.0762 15.4451 31.0762H24.7171C26.0693 31.0762 27.1751 30.0584 27.2913 28.7062L28.2032 17.2227C28.2349 16.8353 27.9461 16.4973 27.5554 16.4655C27.1645 16.4373 26.8264 16.7261 26.7948 17.1134L26.7947 17.1134Z" fill="#222222"/>
<path d="M16.4367 13.092C16.824 13.092 17.141 12.775 17.141 12.3877V11.0002C17.141 10.6727 17.4051 10.4086 17.7326 10.4086H21.8844C22.2119 10.4086 22.476 10.6727 22.476 11.0002V12.3877C22.476 12.775 22.793 13.092 23.1803 13.092C23.5676 13.092 23.8846 12.775 23.8846 12.3877V11.0002C23.8846 9.898 22.9866 9 21.8844 9H17.7326C16.6304 9 15.7324 9.89803 15.7324 11.0002V12.3877C15.7324 12.7786 16.0458 13.092 16.4367 13.092Z" fill="#222222"/>
<path d="M10.7043 15.564H28.9842C29.3715 15.564 29.6885 15.247 29.6885 14.8597C29.6885 14.4724 29.3715 14.1554 28.9842 14.1554H10.7043C10.317 14.1554 10 14.4724 10 14.8597C10 15.247 10.317 15.564 10.7043 15.564Z" fill="#222222"/>
</svg>
